<?xml version="1.0" encoding="UTF-8" ?>
<!DOCTYPE svg PUBLIC "-//W3C//DTD SVG 1.1//EN" "http://www.w3.org/Graphics/SVG/1.1/DTD/svg11.dtd">
<svg width="48pt" height="48pt" viewBox="0 0 48 48" version="1.1" xmlns="http://www.w3.org/2000/svg">
<g id="#898989ce">
<path fill="#898989" opacity="0.81" d=" M 22.05 9.88 C 23.00 9.63 23.99 9.59 24.96 9.46 C 27.04 11.94 30.32 13.75 31.29 16.93 C 31.64 20.09 28.17 20.94 25.88 21.69 C 30.01 25.67 34.54 29.28 38.41 33.53 C 39.24 35.72 37.08 37.32 35.65 38.57 C 34.27 39.73 32.58 38.45 31.66 37.36 C 28.23 33.57 24.90 29.69 21.16 26.19 C 20.86 28.86 19.30 32.37 15.96 31.55 C 13.60 30.11 11.79 27.96 9.94 25.95 C 8.39 24.32 9.29 21.29 11.47 20.71 C 14.71 19.77 16.91 17.14 19.08 14.72 C 20.10 13.13 20.20 10.83 22.05 9.88 M 22.48 11.42 C 22.24 12.84 22.18 14.60 23.48 15.54 C 24.99 16.75 26.22 19.24 28.51 18.60 C 28.66 16.94 28.54 15.01 27.05 13.96 C 25.76 12.82 24.51 10.70 22.48 11.42 M 18.30 19.18 C 17.28 19.79 16.35 20.54 15.41 21.26 C 16.66 22.80 18.19 24.34 19.73 25.58 C 20.45 24.68 21.19 23.79 21.84 22.84 C 23.00 22.06 23.98 21.04 24.94 20.03 C 23.68 18.65 22.35 17.33 20.98 16.06 C 20.06 17.06 18.77 17.86 18.30 19.18 M 11.45 22.40 C 11.06 24.92 13.46 26.45 15.08 27.92 C 15.67 28.64 16.31 29.30 17.01 29.92 C 17.83 29.40 18.90 28.51 18.57 27.39 C 18.16 27.09 17.34 26.49 16.92 26.18 C 15.42 24.62 14.04 21.81 11.45 22.40 M 23.03 24.88 C 24.61 26.67 26.33 28.33 28.08 29.96 C 29.67 32.46 31.40 35.15 34.01 36.66 C 35.18 36.27 36.22 35.58 37.33 35.06 C 36.51 34.40 35.67 33.76 34.82 33.15 C 34.01 31.94 32.93 30.95 31.92 29.92 C 31.18 29.09 30.34 28.36 29.47 27.67 C 28.38 27.32 27.67 26.59 27.34 25.50 C 27.02 25.10 26.40 24.32 26.09 23.92 C 25.02 22.61 23.83 24.10 23.03 24.88 Z" />
</g>
</svg>
