<?xml version="1.0" encoding="UTF-8" ?>
<!DOCTYPE svg PUBLIC "-//W3C//DTD SVG 1.1//EN" "http://www.w3.org/Graphics/SVG/1.1/DTD/svg11.dtd">
<svg width="48pt" height="48pt" viewBox="0 0 48 48" version="1.1" xmlns="http://www.w3.org/2000/svg">
<g id="#7f7f7fd4">
<path fill="#7f7f7f" opacity="0.83" d=" M 15.87 9.99 C 20.41 5.19 29.18 5.58 33.15 10.92 C 37.75 16.35 35.77 25.88 29.06 28.60 C 35.13 30.86 41.00 35.48 42.17 42.20 C 40.14 42.25 39.87 40.24 39.10 38.86 C 35.94 32.75 28.69 29.16 21.91 30.08 C 15.37 30.87 9.59 35.76 7.69 42.06 C 7.26 41.97 6.42 41.80 5.99 41.72 C 7.66 35.29 13.11 30.87 19.07 28.55 C 11.91 25.70 10.44 15.15 15.87 9.99 M 21.50 8.67 C 15.13 10.29 11.97 18.76 16.14 24.00 C 20.20 30.10 30.59 28.95 33.13 22.05 C 36.82 14.98 28.91 6.21 21.50 8.67 Z" />
</g>
</svg>
