<?xml version="1.0" encoding="UTF-8" ?>
<!DOCTYPE svg PUBLIC "-//W3C//DTD SVG 1.1//EN" "http://www.w3.org/Graphics/SVG/1.1/DTD/svg11.dtd">
<svg width="48pt" height="48pt" viewBox="0 0 48 48" version="1.1" xmlns="http://www.w3.org/2000/svg">
<g id="#d05353d4">
<path fill="#d05353" opacity="0.83" d=" M 20.96 8.84 C 22.12 8.34 23.50 7.01 24.75 8.10 C 31.37 11.86 37.99 15.59 44.62 19.33 C 45.80 19.87 46.32 20.83 46.16 22.21 C 38.61 18.04 31.15 13.71 23.61 9.51 C 16.27 13.32 9.21 17.65 1.83 21.35 C 1.92 20.86 2.10 19.87 2.19 19.37 C 8.32 15.66 14.77 12.48 20.96 8.84 Z" />
<path fill="#d05353" opacity="0.83" d=" M 13.52 27.50 C 16.96 23.14 23.04 23.40 28.01 23.90 C 33.81 24.52 37.94 30.27 37.64 35.92 C 37.46 37.53 38.52 40.20 36.01 40.28 C 36.45 35.21 35.75 28.96 30.56 26.50 C 25.14 24.27 17.37 24.49 13.86 29.88 C 11.71 32.83 12.35 36.60 12.30 40.00 L 10.70 40.02 C 10.70 35.75 10.03 30.72 13.52 27.50 Z" />
</g>
</svg>
