<?xml version="1.0" encoding="utf-8"?>
<!-- Generator: Adobe Illustrator 16.0.0, SVG Export Plug-In . SVG Version: 6.00 Build 0)  -->
<!DOCTYPE svg PUBLIC "-//W3C//DTD SVG 1.1//EN" "http://www.w3.org/Graphics/SVG/1.1/DTD/svg11.dtd">
<svg version="1.1" id="Layer_1" xmlns="http://www.w3.org/2000/svg" xmlns:xlink="http://www.w3.org/1999/xlink" x="0px" y="0px"
	 width="48px" height="48px" viewBox="0 0 48 48" enable-background="new 0 0 48 48" xml:space="preserve">
<g>
	<path fill="#A4ADB1" d="M7.352,11.685l6.936-0.021l0.642,3.339l23.323-0.065L31,29.484c-5.08,0.01-10.16-0.03-15.23,0.02
		c0,0-2.9-15.4-2.95-16.15l-4.96-0.02L7.352,11.685z M15.186,16.475l0.834,4.117l17.522-0.029l1.956-4.086L15.186,16.475z
		 M16.25,22.063l1.031,6L30.063,28l2.854-5.979L16.25,22.063z"/>
</g>
<path fill="#A4ADB1" d="M21.188,34.563c0,1.208-0.979,2.188-2.188,2.188l0,0c-1.208,0-2.188-0.979-2.188-2.188l0,0
	c0-1.208,0.979-2.188,2.188-2.188l0,0C20.208,32.375,21.188,33.354,21.188,34.563L21.188,34.563z"/>
<path fill="#A4ADB1" d="M31.813,34.563c0,1.208-0.979,2.188-2.188,2.188l0,0c-1.208,0-2.188-0.979-2.188-2.188l0,0
	c0-1.208,0.979-2.188,2.188-2.188l0,0C30.833,32.375,31.813,33.354,31.813,34.563L31.813,34.563z"/>
</svg>
