<?xml version="1.0" encoding="utf-8"?>
<!-- Generator: Adobe Illustrator 16.0.0, SVG Export Plug-In . SVG Version: 6.00 Build 0)  -->
<!DOCTYPE svg PUBLIC "-//W3C//DTD SVG 1.1//EN" "http://www.w3.org/Graphics/SVG/1.1/DTD/svg11.dtd">
<svg version="1.1" id="Layer_1" xmlns="http://www.w3.org/2000/svg" xmlns:xlink="http://www.w3.org/1999/xlink" x="0px" y="0px"
	 width="48px" height="48px" viewBox="0 0 48 48" enable-background="new 0 0 48 48" xml:space="preserve">
<g>
	<g>
		<path fill="#B6B6B6" d="M19.67,8.78c9.23-2.92,19.73,4.57,20.05,14.19c0.87,8.72-6.97,17.05-15.71,16.79
			c-8.38,0.26-16.03-7.41-15.77-15.79C8.08,17.08,13.17,10.74,19.67,8.78z M17.292,10.958C10.875,14.208,7.417,22,10.583,29.917
			c1.91,5.17,8.566,8.813,14.167,8.583c7.22,0.31,14.583-7.333,13.833-14.667C38.874,16.963,32.531,9.75,25,9.167
			C20.625,9,19.25,10.042,17.292,10.958z"/>
	</g>
	<path fill="#B6B6B6" d="M20.47,17.76c2.91-2.1,7.34-1.62,9.66,1.16c1.995,2.497,1.683,6.622,1.016,8.039
		c-1.141,2.219-3.037,3.62-5.021,4.073c-1.734,0.172-4.234-0.156-4.859-0.953c0,0-0.109-0.781,0.667-0.826
		c0.319-0.018,4.109,1.581,5.901-0.336c3.76-2.417,3.25-7.667,0.417-10.083c-1.625-1.042-3.313-1.583-5.188-1.083
		c-4.156,1.297-4.125,6.281-4.125,6.281h1.203l-1.781,3.109c0,0-1.86-2.471-2.25-3.031l1.469-0.031
		C17.578,24.078,17.641,19.734,20.47,17.76z"/>
	<polygon fill="#B6B6B6" points="23.958,19.063 24.958,19.063 24.938,23.625 28.896,23.625 28.875,24.625 23.958,24.667 	"/>
</g>
</svg>
