<?xml version="1.0" encoding="UTF-8" ?>
<!DOCTYPE svg PUBLIC "-//W3C//DTD SVG 1.1//EN" "http://www.w3.org/Graphics/SVG/1.1/DTD/svg11.dtd">
<svg width="48pt" height="48pt" viewBox="0 0 48 48" version="1.1" xmlns="http://www.w3.org/2000/svg">
<g id="#a4adb1fe">
<path fill="#a4adb1" opacity="1.00" d=" M 7.44 12.08 C 7.76 11.45 8.40 10.19 8.72 9.56 C 11.21 9.58 13.70 9.59 16.19 9.60 C 16.67 10.93 17.18 12.25 17.67 13.58 C 25.08 13.64 32.50 13.55 39.92 13.63 C 37.82 18.18 34.96 22.35 33.24 27.07 C 32.43 27.84 32.21 29.65 30.84 29.61 C 26.01 29.90 21.17 29.65 16.34 29.70 C 15.67 25.31 14.68 20.96 14.20 16.54 L 13.65 16.54 C 13.59 15.80 13.47 14.32 13.41 13.58 C 11.83 13.60 10.24 13.62 8.66 13.66 C 8.36 13.26 7.75 12.47 7.44 12.08 M 18.17 17.37 C 18.18 17.93 18.19 19.03 18.20 19.59 C 19.81 19.73 21.40 20.01 23.01 20.16 C 26.42 19.29 29.92 19.91 33.30 20.61 C 33.47 19.53 33.63 18.45 33.79 17.37 C 28.59 17.42 23.38 17.41 18.17 17.37 M 19.24 23.50 C 19.32 24.44 19.39 25.39 19.47 26.34 C 22.98 26.28 26.51 26.54 30.01 26.15 C 30.32 25.29 30.62 24.41 30.88 23.52 C 27.00 23.53 23.12 23.55 19.24 23.50 Z" />
<path fill="#a4adb1" opacity="1.00" d=" M 17.25 31.47 C 18.51 31.54 19.77 31.69 21.02 31.91 C 21.92 33.63 21.56 35.57 21.38 37.40 C 19.81 37.54 18.23 37.63 16.66 37.69 C 16.24 36.40 15.82 35.11 15.44 33.81 C 15.89 33.22 16.80 32.05 17.25 31.47 Z" />
<path fill="#a4adb1" opacity="1.00" d=" M 26.05 33.94 C 26.97 33.05 27.93 32.21 28.93 31.41 C 30.16 31.64 31.34 32.07 32.45 32.69 C 32.51 33.95 32.54 35.20 32.58 36.45 L 32.14 36.61 C 31.36 36.89 29.82 37.45 29.04 37.73 C 28.47 37.15 27.32 35.99 26.75 35.41 C 26.57 35.04 26.23 34.31 26.05 33.94 Z" />
</g>
<g id="#565a5d85">
<path fill="#565a5d" opacity="0.52" d=" M 26.75 35.41 C 27.32 35.99 28.47 37.15 29.04 37.73 C 29.82 37.45 31.36 36.89 32.14 36.61 C 30.92 39.56 26.75 38.58 26.75 35.41 Z" />
</g>
</svg>
