<?xml version="1.0" encoding="UTF-8" ?>
<!DOCTYPE svg PUBLIC "-//W3C//DTD SVG 1.1//EN" "http://www.w3.org/Graphics/SVG/1.1/DTD/svg11.dtd">
<svg width="48pt" height="48pt" viewBox="0 0 48 48" version="1.1" xmlns="http://www.w3.org/2000/svg">
<g id="#8d8d8dc5">
<path fill="#8d8d8d" opacity="0.77" d=" M 22.23 8.14 C 32.04 6.75 41.43 16.28 39.80 26.07 C 38.80 35.14 28.95 42.02 20.10 39.45 C 11.21 37.36 5.47 26.81 9.14 18.31 C 11.23 12.86 16.44 8.81 22.23 8.14 M 18.49 11.73 C 12.35 14.28 9.13 21.80 11.22 28.06 C 13.03 34.65 20.50 38.75 27.07 37.04 C 34.54 35.65 39.23 27.07 36.79 19.96 C 34.76 12.41 25.48 8.47 18.49 11.73 Z" />
<path fill="#8d8d8d" opacity="0.77" d=" M 17.16 22.58 C 18.14 16.69 26.25 14.07 30.18 18.73 C 34.61 23.04 31.12 31.39 24.96 31.35 C 23.55 31.19 19.93 31.16 20.74 28.94 C 23.01 28.84 25.56 29.88 27.62 28.50 C 29.11 27.62 29.70 25.88 30.56 24.48 C 28.36 24.98 26.12 25.32 23.93 25.91 C 23.62 25.48 22.99 24.63 22.68 24.20 C 23.44 22.25 23.09 19.54 25.16 18.37 C 25.31 19.78 25.43 21.20 25.55 22.61 C 27.25 22.90 28.93 23.34 30.64 23.58 C 29.78 20.36 26.72 17.28 23.15 18.49 C 21.02 19.07 17.73 22.10 20.53 23.99 C 19.89 25.03 19.22 26.05 18.52 27.05 C 16.99 26.71 16.60 24.94 15.70 23.87 C 16.07 23.55 16.80 22.90 17.16 22.58 Z" />
</g>
</svg>
