<?xml version="1.0" encoding="utf-8"?>
<!-- Generator: Adobe Illustrator 16.0.0, SVG Export Plug-In . SVG Version: 6.00 Build 0)  -->
<!DOCTYPE svg PUBLIC "-//W3C//DTD SVG 1.1//EN" "http://www.w3.org/Graphics/SVG/1.1/DTD/svg11.dtd">
<svg version="1.1" id="Layer_1" xmlns="http://www.w3.org/2000/svg" xmlns:xlink="http://www.w3.org/1999/xlink" x="0px" y="0px"
	 width="48px" height="48px" viewBox="0 0 48 48" enable-background="new 0 0 48 48" xml:space="preserve">
<g>
	<path fill="#FA6464" d="M24.635,10.374c6.443,3.618,12.938,7.167,19.287,10.94c0.043,0.396,0.129,1.189,0.172,1.585
		c-6.452-3.644-12.904-7.288-19.356-10.94C18.45,15.301,12.334,18.97,5.977,22.192c0.104-0.405,0.31-1.206,0.414-1.61
		C12.395,17.049,18.614,13.896,24.635,10.374z"/>
	<path fill="#FA6464" d="M18.502,25.586c2.627-1.49,5.789-1.326,8.709-1.232c3.428,0.121,6.848,2.024,8.347,5.177
		c1.542,2.679,1.128,5.849,1.163,8.795c-0.319,0.008-0.965,0.008-1.292,0.008c0.043-3.153,0.353-6.659-1.757-9.295
		c-2.662-3.687-7.761-3.816-11.845-3.196c-2.938,0.448-5.271,2.696-6.452,5.332c-0.913,2.283-0.491,4.781-0.405,7.167l-1.284-0.008
		c0.034-3.394-0.612-7.339,1.904-10.087C16.451,27.137,17.393,26.41,18.502,25.586z"/>
</g>
</svg>
